<?xml version="1.0" encoding="utf-8"?>
<!-- Generator: Adobe Illustrator 26.0.1, SVG Export Plug-In . SVG Version: 6.00 Build 0)  -->
<svg version="1.1" id="Calque_1" xmlns="http://www.w3.org/2000/svg" xmlns:xlink="http://www.w3.org/1999/xlink" x="0px" y="0px"
	 viewBox="0 0 772.5 505.5" style="enable-background:new 0 0 772.5 505.5;" xml:space="preserve">
<style type="text/css">
	.st0{fill:none;stroke:#1D1D1B;stroke-width:5;stroke-miterlimit:10;}
	.st1{fill:none;stroke:#1D1D1B;stroke-width:4;stroke-miterlimit:10;}
</style>
<g id="Calque_1_00000034078529030851466410000015804418029417678769_">
	<path class="st0" d="M378.9,455.3c9.1,4.2,23.2,7.7,32.5,7.2c26.9-1.3,43.3-21.3,40.8-56.6c-2.9-40.4-40.8-68.5-38.2-103.1
		c3.1-41.9,25.6-73.2,22.4-102.5C433,171,385.4,166,367,160.6c-18.4-5.5-17.4-21.8-20.2-31c-1.9-6.4-8.9-15.9-20.9-16.4
		c-12-0.5-37,10.1-41.4,14.4s-13,13-12,15.9s3.8,15.4,9.1,16.4l43.3-33.1"/>
	<path class="st0" d="M427,400.5c-54.6,22.2-115.3,49.7-127.1,49c-15.9-0.9-24.9-17.3-24.9-27.1c0-9.7,13.1-25.1,29.2-22.7
		c9,1.3,27.2,18.4,44.4,32.8"/>
	<path class="st0" d="M575.6,394.5c-41.7,3.5-73,37.7-65.8,61.5c5.8,19.1,23.2,30.4,51.9,24.9c30.3-5.8,60.2-32.3,59.2-62
		c-1.4-38.2-53.5-54.1-108.2-46.9c-13.4,1.8-37.5,10-62.2,19.5"/>
	<path class="st0" d="M621.2,421.7c29.1,12.8,61.8,33.4,87.6,33.2c30-0.2,53-26,62.8-44.4c0,0-25,35.7-58.2,36.9
		c-19.4,0.7-60.6-29.7-96.9-44.8"/>
	<path class="st0" d="M452.4,421c50.2-20.1,123.6-42.2,142.2-15.9c26,36.8-41.5,60.6-55.6,45.4c-13.5-14.5,25.5-43.8,60-36.6"/>
	<polygon class="st0" points="8.6,267.6 14,277.5 16.5,267.1 	"/>
	<path class="st0" d="M54.8,264.6c0,0-24.3,9-30.9,13.9S9.5,295.4,10,297.4c0.5,2,5,12.5,5,12.5"/>
	<line class="st0" x1="3.1" y1="307.4" x2="10.1" y2="297.4"/>
	<circle class="st0" cx="25.6" cy="256.5" r="7"/>
	<line class="st0" x1="44.4" y1="246.7" x2="58.8" y2="258.6"/>
	<line class="st0" x1="42.4" y1="252.1" x2="50.4" y2="259.6"/>
	<polyline class="st0" points="18,244.7 36.4,232.2 36.4,238.2 54.8,226.7 52.4,235.2 70.8,231.7 64.8,238.2 84.7,238.7 73.8,243.2 
			"/>
	<polyline class="st0" points="67.3,51.7 85.7,40.5 84.6,46.3 107.6,38.7 103.7,46 140.8,54.2 125.7,59.7 143,79.1 134.7,77.7 
		140.1,91.4 132.2,85.3 	"/>
	<circle class="st0" cx="71.1" cy="65.4" r="7"/>
	<line class="st0" x1="87.5" y1="66.5" x2="93.2" y2="73.7"/>
	<line class="st0" x1="93.2" y1="64.3" x2="103.3" y2="77"/>
	<polyline class="st0" points="106.9,88.5 62.2,105.8 57.5,115.9 	"/>
	<line class="st0" x1="48.1" y1="102.9" x2="62.2" y2="105.8"/>
	<path class="st0" d="M422.5,263.5c53.1-12.5,108.2-21.5,146.8-45.6c66-41.1,79.4-94,64.2-114c-16.2-21.3-38.2-9.9-54.1-5.5
		c-13.4,3.7-48.1-0.5-58.7-1.4c-7.3-0.7-41.4,5.8-49.1,8.7s-16.3,0.5-17.8-3.4"/>
	<path class="st0" d="M378.9,181.2c-25.4,54.6-72.1,112.2-98.5,131.6c-44.4,32.7-57.7,55.5-57.7,55.5s40.4-57,110.7-82.2
		c13.9-5,39.4-11.7,62.4-17.1"/>
	<path class="st0" d="M232.2,111.9c0,0-47.5-1.8-51.2-4.3s-2.4-11.9-2.4-11.9s5.6-7.6,11.9-9.3s31.3-1.7,41.6-0.3
		c7.1,1,22.6,5.5,28.5,2.1c22.4-12.8,53-97.1,99.2-86.3s44.8,59.4,35.3,126.9c-1.3,8.8-7.5,26-10.6,35.4"/>
	<polyline class="st0" points="199.4,85.4 214,75.5 213.8,81.1 238.1,72.4 234,81.3 251.8,76.5 250.6,84.7 263.1,78.2 260.6,88.3 	
		"/>
	<circle class="st0" cx="209.5" cy="99.8" r="7"/>
	<line class="st0" x1="228.7" y1="101.7" x2="234.2" y2="106.5"/>
	<line class="st0" x1="231.1" y1="94.8" x2="245.5" y2="107"/>
	<path class="st0" d="M190.5,109.4c0,0-16.3-1.2-24.8,7l-6.5,10.1"/>
	<line class="st0" x1="154.2" y1="116.2" x2="165.7" y2="116.4"/>
	<polyline class="st0" points="281.1,129.6 294.1,107 295.1,114.7 312.9,101.7 311.9,109.9 345.1,99.8 337.4,108 352.3,117.6 
		336.4,116.2 	"/>
	<circle class="st0" cx="293.6" cy="136.5" r="7"/>
	<line class="st0" x1="306.6" y1="125.8" x2="316.7" y2="126.3"/>
	<line class="st0" x1="304.7" y1="121" x2="324.9" y2="121.9"/>
	<path class="st0" d="M298.4,146.9c0,0-21.4,19-29.3,21.2c-7.2,1.9-25-5.3-25-5.3l-4.8-8.7"/>
	<line class="st0" x1="236.4" y1="165.7" x2="244.1" y2="162.8"/>
	<path class="st0" d="M362.6,176.5c-30,63.1-109.3,127.3-129.1,143.1c-40.4,32.2-46.1,49.9-46.1,49.9s5-19.1,42.5-49.3
		c16.7-13.5,60.2-65.3,47.3-103.1s-67.4-48.3-99.5-44.4c-26.3,3.3-36.8,2.9-42.2-6.9c-5.4-9.7,1.1-44-1.1-67.8
		c-1.9-20.9-6.9-29.6-14.1-35.3c-6.8-5.4-16.7-10.1-33.9-12.3C69.1,48.2,47,58.6,46.3,63s1.4,10.8,1.4,10.8s54.4,5.4,57.3,8.3
		c2.9,2.9,3.6,13,0.7,15.9c-2.9,2.9-23.8,22.3-23.8,22.3s0,4.7,2.6,4.3c2.6-0.4,27.7-23.5,27.7-23.5c9.4,15.2-7.2,57.3,1.4,76.9
		c8.6,19.5,45.8,20.6,64.2,15.1c18.4-5.4,65.7-1.7,74.3,30.3c8.7,32.2-16.9,53.7-37.5,73.1c-16.3,15.4-40.9,25.5-71.2,78.4
		c0,0,3.6-8.9,26.9-45.7c18.7-29.5,15.3-59.1-9.1-74.4c-24.9-15.6-53.3-6.8-75.2-9.1c-10-0.9-20-2.4-29.9-4.5
		c-14.4-3-44.8,4.5-54.8,13.4c0,0-2.5,10,3,13.4l50.3-3.5c0,0-5,7.5-7.5,9c-2.5,1.5-23.4,12-23.4,12s2,4.5,5,4.5s22.5-10.2,32.4-12
		c8.6-1.5,16.4-5.8,22.2-12.3c0,0,53.8-8,68.5,6.7c26.7,26.7-19.5,54.8-52.7,108.2c-30.5,49-9.9,111.8,67.4,121.9
		c99.9,13,199.5-41.1,239.1-60.6l10.6-5.2c5.1-2.6,9.2-9.1,11.1-20.8c5.8-36.1-39.7-76.5-37.9-114.7c1.9-41.2,27-67.1,23.8-94.1
		c-3.2-27.1-47.3-24.1-64.9-36.8c-9.5-6.8-12.8-19.4-17.9-22.5c-8.1-4.8-35.1,5.8-35.1,5.8l-3.8-2.4"/>
	<path class="st0" d="M192.2,110c0,0,0.6,3.1,1.1,4.5c0.5,1.4,11.6,3.3,20.8,4.3c9.7,1.1,33.4,3.4,41-1.4
		c7.6-4.8,13.1-8.6,16.7-12.4c13.5-14.4,51.6-90.3,88.4-80.2c35.5,9.7,27.1,69,7.8,134.9"/>
	<path class="st0" d="M389.6,303.4c-30.9,9.9-61.8,20.1-73.4,26c-36.8,18.4-69.2,63.5-69.2,63.5c5.4-6.5,22.8-27.7,55.2-25.6
		c25.6,1.7,61.3,32.4,80.8,50.9"/>
	<path class="st0" d="M493.3,93.2c0,0-46.6,11.1-51.9,9.6c-5.3-1.4,0-14.4,0-14.4s10.1-7.7,16.4-12.5c6.3-4.8,31.7-8.2,46.1-2.4
		c14.4,5.8,44.1,14.8,62.5,8.9c24.5-7.9,68.3-20.8,89.4,16.7c20.5,36.3-17.3,100.6-73.6,134.2c-32.1,19.1-106,43.2-167.2,62.6"/>
	<circle class="st0" cx="468" cy="85.2" r="7"/>
	<line class="st0" x1="486.3" y1="78.8" x2="492.8" y2="86"/>
	<line class="st0" x1="493.5" y1="76.6" x2="504.4" y2="87.4"/>
	<polyline class="st0" points="464,71.6 484.2,57.9 482,65.1 510.9,57.9 503.6,65.1 528.9,64.3 518.8,70.8 541.1,74.4 520.2,78.1 	
		"/>
</g>
<g id="Calque_3">
	<path class="st1" d="M122,467.1c0,0,5.1-3.4,8.5,0"/>
	<path class="st1" d="M133.9,472.6c0,0,5.1-3.4,8.4,0"/>
	<path class="st1" d="M139.6,465.4c0,0,5.1-3.4,8.4,0"/>
	<path class="st1" d="M129.4,460.6c0,0,5.1-3.4,8.4,0"/>
	<path class="st1" d="M143.2,458.1c0,0,5.1-3.4,8.4,0"/>
	<path class="st1" d="M155.1,463.6c0,0,5.1-3.4,8.4,0"/>
	<path class="st1" d="M160.7,456.4c0,0,5.1-3.4,8.4,0"/>
	<path class="st1" d="M150.6,451.6c0,0,5.1-3.4,8.4,0"/>
	<path class="st1" d="M133.3,453.4c0,0,5.1-3.4,8.4,0"/>
	<path class="st1" d="M138.9,446.3c0,0,5.1-3.4,8.4,0"/>
	<path class="st1" d="M142.6,439c0,0,5.1-3.4,8.4,0"/>
	<path class="st1" d="M154.4,444.4c0,0,5.1-3.4,8.4,0"/>
	<path class="st1" d="M160.1,437.3c0,0,5.1-3.4,8.4,0"/>
	<path class="st1" d="M149.9,432.4c0,0,5.1-3.4,8.4,0"/>
	<path class="st1" d="M119.3,456.4c0,0,5.1-3.4,8.4,0"/>
	<path class="st1" d="M170.8,482.1c0,0,5.1-3.4,8.4,0"/>
	<path class="st1" d="M176.5,475c0,0,5.1-3.4,8.5,0"/>
	<path class="st1" d="M166.3,470.1c0,0,5.1-3.4,8.4,0"/>
	<path class="st1" d="M180.1,467.7c0,0,5.1-3.4,8.5,0"/>
	<path class="st1" d="M192,473.1c0,0,5.1-3.4,8.5,0"/>
	<path class="st1" d="M197.6,466c0,0,5.1-3.4,8.4,0"/>
	<path class="st1" d="M187.5,461.1c0,0,5.1-3.4,8.5,0"/>
	<path class="st1" d="M170.2,463c0,0,5.1-3.4,8.4,0"/>
	<path class="st1" d="M175.8,455.9c0,0,5.1-3.4,8.4,0"/>
	<path class="st1" d="M191.4,454c0,0,5.1-3.4,8.5,0"/>
	<path class="st1" d="M169,442.9c0,0,5.1-3.4,8.4,0"/>
	<path class="st1" d="M180.8,448.4c0,0,5.1-3.4,8.5,0"/>
	<path class="st1" d="M186.5,441.2c0,0,5.1-3.4,8.5,0"/>
	<path class="st1" d="M176.3,436.3c0,0,5.1-3.4,8.4,0"/>
	<path class="st1" d="M168.3,423.8c0,0,5.1-3.4,8.4,0"/>
	<path class="st1" d="M180.2,429.2c0,0,5.1-3.4,8.4,0"/>
	<path class="st1" d="M185.8,422.1c0,0,5.1-3.4,8.4,0"/>
	<path class="st1" d="M175.7,417.2c0,0,5.1-3.4,8.5,0"/>
	<path class="st1" d="M196,447.8c0,0,5.1-3.4,8.5,0"/>
	<path class="st1" d="M201.6,440.7c0,0,5.1-3.4,8.5,0"/>
	<path class="st1" d="M165.5,450.4c0,0,5.1-3.4,8.4,0"/>
	<path class="st1" d="M203.7,458.4c0,0,5.1-3.4,8.4,0"/>
	<path class="st1" d="M219.5,477c0,0,5.1-3.4,8.4,0"/>
	<path class="st1" d="M209.3,472.1c0,0,5.1-3.4,8.5,0"/>
	<path class="st1" d="M223.1,469.7c0,0,5.1-3.4,8.5,0"/>
	<path class="st1" d="M235,475.1c0,0,5.1-3.4,8.5,0"/>
	<path class="st1" d="M240.6,468c0,0,5.1-3.4,8.5,0"/>
	<path class="st1" d="M230.5,463.1c0,0,5.1-3.4,8.4,0"/>
	<path class="st1" d="M213.2,465c0,0,5.1-3.4,8.5,0"/>
	<path class="st1" d="M218.8,457.8c0,0,5.1-3.4,8.5,0"/>
	<path class="st1" d="M234.3,456c0,0,5.1-3.4,8.4,0"/>
	<path class="st1" d="M208.4,452.4c0,0,5.1-3.4,8.5,0"/>
	<path class="st1" d="M150.4,472.6c0,0,5.1-3.4,8.4,0"/>
	<path class="st1" d="M157.9,478.6c0,0,5.1-3.4,8.4,0"/>
	<path class="st1" d="M121.9,447c0,0,5.1-3.4,8.5,0"/>
	<path class="st1" d="M136,425.8c0,0,5.1-3.4,8.4,0"/>
	<path class="st1" d="M139.7,418.5c0,0,5.1-3.4,8.4,0"/>
	<path class="st1" d="M151.6,424c0,0,5.1-3.4,8.4,0"/>
	<path class="st1" d="M147.1,411.9c0,0,5.1-3.4,8.4,0"/>
	<path class="st1" d="M126.3,439.9c0,0,5.1-3.4,8.5,0"/>
	<path class="st1" d="M109.1,441.8c0,0,5.1-3.4,8.4,0"/>
	<path class="st1" d="M114.7,434.7c0,0,5.1-3.4,8.4,0"/>
	<path class="st1" d="M118.3,427.4c0,0,5.1-3.4,8.4,0"/>
	<path class="st1" d="M154.1,402.1c0,0,5.1-3.4,8.4,0"/>
	<path class="st1" d="M166,407.5c0,0,5.1-3.4,8.4,0"/>
	<path class="st1" d="M161.5,395.5c0,0,5.1-3.4,8.4,0"/>
	<path class="st1" d="M159.4,416.1c0,0,5.1-3.4,8.4,0"/>
	<path class="st1" d="M132.6,412.2c0,0,5.1-3.4,8.4,0"/>
	<path class="st1" d="M115.3,414.1c0,0,5.1-3.4,8.4,0"/>
	<path class="st1" d="M120.9,407c0,0,5.1-3.4,8.5,0"/>
	<path class="st1" d="M124.6,399.7c0,0,5.1-3.4,8.4,0"/>
	<path class="st1" d="M216.5,428.2c0,0,5.1-3.4,8.5,0"/>
	<path class="st1" d="M199.2,430.1c0,0,5.1-3.4,8.4,0"/>
	<path class="st1" d="M204.8,423c0,0,5.1-3.4,8.4,0"/>
	<path class="st1" d="M208.5,415.7c0,0,5.1-3.4,8.5,0"/>
	<path class="st1" d="M188.7,409.4c0,0,5.1-3.4,8.5,0"/>
	<path class="st1" d="M277.5,465.5c0,0,5.1-3.4,8.5,0"/>
	<path class="st1" d="M253.8,461.6c0,0,5.1-3.4,8.5,0"/>
	<path class="st1" d="M251.2,475.3c0,0,5.1-3.4,8.4,0"/>
	<path class="st1" d="M260.2,468.7c0,0,5.1-3.4,8.4,0"/>
	<path class="st1" d="M208.1,483.7c0,0,5.1-3.4,8.4,0"/>
	<path class="st1" d="M192.4,480.7c0,0,5.1-3.4,8.5,0"/>
</g>
</svg>
