<?xml version="1.0" encoding="utf-8"?>
<!-- Generator: Adobe Illustrator 25.3.1, SVG Export Plug-In . SVG Version: 6.00 Build 0)  -->
<svg version="1.1" id="Calque_1" xmlns="http://www.w3.org/2000/svg" xmlns:xlink="http://www.w3.org/1999/xlink" x="0px" y="0px"
	 viewBox="0 0 715 191" style="enable-background:new 0 0 715 191;" xml:space="preserve">
<path d="M295.3,146c-5.4,0-10-1-13.9-3.1c-3.9-2.1-6.8-5.1-8.9-9.1c-2.1-4-3.2-8.9-3.2-14.7V82.8H256V66.3h13.2V46h20.6v20.3H311
	v16.6h-21.2v33.7c0,3.7,0.7,6.6,2.3,8.6c1.6,2,4,3,7.2,3c1.7,0,3.5-0.2,5.4-0.7c1.9-0.5,3.8-1.2,5.5-1.9l3.7,15.4
	c-2.5,1.5-5.4,2.7-8.5,3.7C302.2,145.5,298.9,146,295.3,146z"/>
<path d="M361.2,146c-5.8,0-11.1-1-16-3c-4.8-2-9-4.8-12.6-8.5c-3.6-3.7-6.3-8-8.2-13.1c-2-5-2.9-10.6-2.9-16.5
	c0-5.8,0.9-11.1,2.9-16.2c2-5,4.7-9.3,8.2-13c3.5-3.7,7.6-6.5,12.3-8.6c4.7-2.1,9.8-3,15.3-3c5.7,0,10.8,0.9,15.5,2.9
	c4.6,2,8.6,4.7,12,8.4s5.9,8,7.7,12.9c1.8,5,2.7,10.6,2.7,16.8v5h-55.7c0.8,5.8,2.9,10.3,6.3,13.5s7.6,4.9,12.6,4.9
	c3.6,0,6.7-0.8,9.7-2.5c2.9-1.7,5.3-4.1,7.1-7.2l18.4,5.9c-1.8,4.4-4.4,8.2-8,11.3c-3.6,3.1-7.7,5.6-12.4,7.2
	C371.5,145.2,366.6,146,361.2,146z M360.2,79.9c-4.5,0-8.3,1.5-11.3,4.4c-3,2.9-5.1,6.9-6.1,12.1H377c-0.7-5.1-2.6-9.1-5.7-12.1
	C368.4,81.4,364.6,79.9,360.2,79.9z"/>
<path d="M410.9,143.8V66.3h19l0.7,11.7c2-4.1,4.6-7.2,8-9.4c3.4-2.2,7.2-3.3,11.8-3.3c1.4,0,2.7,0.1,4.1,0.3
	c1.4,0.2,2.6,0.5,3.7,0.9L456,86.8c-1.1-0.4-2.2-0.6-3.3-0.8c-1.2-0.1-2.3-0.2-3.5-0.2c-5.7,0-10.1,1.8-13.1,5.2
	c-3,3.5-4.5,8.4-4.5,14.8v38H410.9z"/>
<path d="M469.3,143.8V66.3h19l0.6,10c2.2-3.7,5.4-6.7,9.3-8.9s8.5-3.3,13.5-3.3c5.7,0,10.6,1.4,14.9,4c4.3,2.7,7.6,6.5,9.9,11.5
	c2.3,5,3.6,10.9,3.6,17.6v46.6h-20.6v-44c0-5.4-1.3-9.7-3.7-12.7c-2.4-3-5.9-4.6-10.2-4.6c-3.2,0-5.9,0.7-8.2,2.1
	c-2.3,1.5-4.2,3.4-5.6,6c-1.4,2.5-2.1,5.5-2.1,8.7v44.5H469.3z"/>
<path d="M594,146c-5.8,0-11.1-1-16.1-3c-4.9-2.1-9.1-4.9-12.8-8.6c-3.7-3.7-6.4-8-8.4-13c-2-5-3-10.4-3-16.3c0-5.9,1-11.3,3-16.3
	c2.1-4.9,4.9-9.2,8.6-13c3.7-3.7,8-6.6,12.9-8.7c4.9-2.1,10.4-3,16.3-3c5.8,0,11.1,1,16.1,3c4.9,2.1,9.1,4.9,12.8,8.6
	c3.7,3.7,6.4,8,8.4,12.9c2,4.9,3,10.4,3,16.3c0,5.9-1.1,11.3-3,16.3c-2.1,5-4.9,9.3-8.6,13.1c-3.7,3.7-8,6.6-12.9,8.7
	C605.2,145,599.8,146,594,146z M594.2,127.5c3.7,0,7-0.9,10-2.9c2.9-2,5.3-4.6,6.9-8c1.7-3.4,2.5-7.2,2.5-11.5
	c0-4.3-0.8-8.2-2.5-11.5c-1.7-3.4-4-6.1-6.9-8c-2.9-2-6.3-2.9-10-2.9c-3.7,0-7,0.9-10,2.9c-2.9,2-5.3,4.6-6.9,8
	c-1.7,3.4-2.5,7.2-2.5,11.5c0,4.3,0.8,8.2,2.5,11.5c1.7,3.4,4,6.1,6.9,8C587.1,126.5,590.5,127.5,594.2,127.5z"/>
<path d="M672.3,146c-4,0-7.7-0.6-11-1.8c-3.4-1.2-6.2-2.8-8.7-5c-2.5-2.2-4.4-4.7-5.8-7.7c-1.4-2.9-2.1-6.2-2.1-9.7
	c0-4.9,1.4-9.2,4-12.9c2.6-3.7,6.4-6.6,11.1-8.7c4.8-2.1,10.4-3.1,16.8-3.1c3.3,0,6.3,0.3,9.1,0.8c2.9,0.6,5.7,1.5,8.4,2.5V96
	c0-4.4-1.3-8-3.8-10.7c-2.5-2.7-5.9-4.1-10.2-4.1c-3.3,0-6.2,0.8-8.8,2.4c-2.6,1.6-4.5,3.9-5.6,6.8l-18.4-3.7
	c1.1-4.5,3.3-8.4,6.4-11.9c3.2-3.4,7-6,11.7-7.9c4.6-1.9,9.6-2.8,15-2.8c5,0,9.6,0.7,13.7,2.3c4.1,1.6,7.7,3.8,10.6,6.7
	c2.9,2.9,5.3,6.4,6.9,10.4c1.6,4,2.4,8.4,2.4,13.3v47h-18.4l-0.6-9.1c-2.1,3.4-5,6.1-8.9,8.2C682.3,145,677.7,146,672.3,146z
	 M665,120.7c0,2.7,1.2,5,3.4,6.7c2.2,1.8,5.3,2.6,8.9,2.6c3.3,0,6.1-0.7,8.7-2.1c2.5-1.4,4.5-3.3,6-5.7c1.5-2.4,2.2-5,2.2-8v-0.7
	c-2.2-0.8-4.4-1.6-6.9-2.1c-2.4-0.5-4.9-0.8-7.4-0.8c-4.6,0-8.3,0.9-10.9,2.7C666.2,115.3,665,117.7,665,120.7z"/>
<path d="M101,0C79.2,0,57.9,7.2,40.5,20.4c-17.4,13.3-30,31.9-35.9,53c-5.9,21.1-4.7,43.6,3.4,64c8.1,20.4,22.5,37.6,41.2,49
	c3.8,2.3,8.2,3.5,12.6,3.5h0.3c3.3,0,6.5-0.6,9.5-1.9c3-1.2,5.7-3.1,8-5.4c2.3-2.3,4.1-5.1,5.4-8.1c1.2-3,1.9-6.3,1.8-9.5v-45.8
	c0-0.3-0.1-0.5-0.3-0.7c-0.2-0.2-0.4-0.3-0.7-0.3h-15c-1.9,0.1-3.8-0.2-5.5-0.9c-1.8-0.7-3.4-1.7-4.7-3c-1.4-1.3-2.4-2.9-3.2-4.7
	c-0.7-1.8-1.1-3.6-1.1-5.5c0-1.9,0.4-3.8,1.1-5.5c0.7-1.7,1.8-3.3,3.2-4.7c1.4-1.3,3-2.3,4.7-3c1.8-0.7,3.7-1,5.5-0.9H131
	c1.9-0.1,3.8,0.2,5.5,0.9c1.8,0.7,3.4,1.7,4.7,3c1.4,1.3,2.4,2.9,3.2,4.7c0.7,1.8,1.1,3.6,1.1,5.5c0,1.9-0.4,3.8-1.1,5.5
	c-0.7,1.8-1.8,3.3-3.2,4.7c-1.4,1.3-3,2.3-4.7,3s-3.7,1-5.5,0.9h-15c-0.3,0-0.5,0.1-0.7,0.3c-0.2,0.2-0.3,0.4-0.3,0.7v45.8
	c0,6.6,2.7,12.9,7.3,17.6c4.6,4.7,10.9,7.3,17.5,7.3h0.3c4.5,0,8.8-1.3,12.6-3.6c18.7-11.4,33.1-28.6,41.2-48.9
	c8-20.4,9.2-42.9,3.3-64c-5.9-21.1-18.5-39.7-35.8-53C144.1,7.2,122.9,0,101,0L101,0z M30,120.4c-3.2,0-6.3-0.9-8.9-2.7
	c-2.6-1.8-4.7-4.3-5.9-7.2c-1.2-2.9-1.5-6.2-0.9-9.3c0.6-3.1,2.1-6,4.4-8.2c2.2-2.2,5.1-3.8,8.2-4.4s6.3-0.3,9.2,0.9
	c2.9,1.2,5.4,3.3,7.2,5.9c1.8,2.6,2.7,5.8,2.7,8.9c0,4.2-1.7,8.3-4.7,11.3C38.4,118.6,34.3,120.3,30,120.4L30,120.4z M101,72.5
	c-4.9,0-9.7-1.5-13.8-4.2c-4.1-2.7-7.3-6.6-9.2-11.2c-1.9-4.6-2.4-9.6-1.4-14.4S80,33.5,83.4,30c3.5-3.5,7.9-5.9,12.7-6.8
	c4.8-1,9.8-0.5,14.3,1.4c4.5,1.9,8.4,5.1,11.1,9.2c2.7,4.1,4.2,8.9,4.2,13.9c0,6.6-2.7,12.9-7.3,17.6
	C113.9,69.8,107.6,72.5,101,72.5L101,72.5z M171.7,120.4c-3.2,0-6.3-0.9-8.9-2.7c-2.6-1.8-4.7-4.3-5.9-7.2c-1.2-2.9-1.5-6.2-0.9-9.3
	c0.6-3.1,2.1-6,4.4-8.2c2.2-2.2,5.1-3.8,8.2-4.4c3.1-0.6,6.3-0.3,9.2,0.9c2.9,1.2,5.4,3.3,7.2,5.9c1.8,2.6,2.7,5.8,2.7,8.9
	c0,4.3-1.7,8.3-4.7,11.3C180,118.7,175.9,120.4,171.7,120.4z"/>
</svg>
